<svg fill="none" height="75" viewBox="0 0 75 75" width="75" xmlns="http://www.w3.org/2000/svg">
    <rect fill="#232E35" height="75" rx="37.5" width="75" />
    <path
        d="M58.5453 31.7647C58.7274 31.6165 58.9998 31.7461 58.9998 31.9808V55.1701C58.9998 57.4783 57.1287 59.3494 54.8206 59.3494H51.1985C48.8904 59.3494 47.0193 57.4783 47.0193 55.1701V42.3386C47.0193 41.5842 47.3589 40.87 47.9439 40.3938L58.5453 31.7647Z"
        fill="white" />
    <path
        d="M16.4547 31.7647C16.2726 31.6165 16.0002 31.7461 16.0002 31.9808V55.1701C16.0002 57.4783 17.8713 59.3494 20.1794 59.3494H23.8015C26.1096 59.3494 27.9807 57.4783 27.9807 55.1701V42.3386C27.9807 41.5842 27.6411 40.87 27.0561 40.3938L16.4547 31.7647Z"
        fill="white" />
    <path d="M23.5227 23.501L37.6277 33.9956L51.5702 23.501" stroke="white" stroke-linecap="round"
        stroke-linejoin="round" stroke-width="14.8596" />
</svg>
