<?xml version="1.0" encoding="utf-8"?><!-- Generator: Adobe Illustrator 25.0.1, SVG Export Plug-In . SVG Version: 6.00 Build 0)  -->
<svg style="enable-background:new 0 0 886 538;" id="Layer_1" version="1.0" viewBox="0 0 886 538"
    x="0px" xmlns="http://www.w3.org/2000/svg" y="0px" xml:space="preserve">
<style type="text/css">
	.st0{fill:#E54B4D;}
	.st1{fill:none;}
</style>
    <path class="st0" d="M547.8,309.3c19.8,0,28.6-10.6,28.6-22.9c0-27.5-43-19-43-32.8c0-5.4,4.9-9.2,12.4-9.2c8-0.1,15.7,2.9,21.5,8.5
	l7.3-9.6c-6.8-6.6-16.2-10.4-27.6-10.4c-16.3,0-26.9,9.4-26.9,21.7c0,27.1,43,17.5,43,33c0,5-4.1,10.2-14.7,10.2
	c-8.9,0-17.4-3.8-23.4-10.3l-7.3,10.1C524.3,304.5,534.2,309.3,547.8,309.3z M593.8,248c4,0,7.2-3.2,7.2-7.2s-3.2-7.2-7.2-7.2
	s-7.2,3.2-7.2,7.2c0,0,0,0,0,0C586.6,244.7,589.8,248,593.8,248C593.7,248,593.8,248,593.8,248L593.8,248z M599.6,308v-53.5h-11.7
	V308L599.6,308z M636.5,329.7c-9.1,0-15.8-2-22.5-8l5.4-8.4c4.4,5,10,6.9,17.1,6.9c7.7,0,15.8-3.5,15.8-15v-6.1
	c-4,5.6-10.3,8.9-17.2,9c-13.6,0-23.7-9.9-23.7-27.5c0-17.4,9.9-27.5,23.7-27.5c6.8,0,13.2,3.2,17.2,8.8v-7.4h11.6v50.7
	C663.9,324.5,649.5,329.7,636.5,329.7L636.5,329.7z M638.6,297.7c5.4-0.1,10.5-2.8,13.7-7.1v-20c-3.3-4.3-8.3-6.9-13.7-7.1
	c-9.3,0-15.2,6.9-15.2,17.2S629.2,297.7,638.6,297.7L638.6,297.7z M726.8,308v-37.7c0-11-5.8-17.2-17.3-17.2
	c-7.2,0-14.1,3.1-18.9,8.5v-7.2H679V308h11.6v-37.5c2.8-3.5,7.9-7.1,13.7-7.1c6.5,0,10.8,2.6,10.8,11.1V308H726.8z M786.3,308h-11.6
	v-5.9c-4,4.6-10.3,7.2-17.4,7.2c-8.6,0-18.5-6-18.5-17.7c0-12.4,9.8-17.5,18.5-17.5c7.3,0,13.4,2.3,17.4,6.9v-8
	c0-6.2-5.2-10-12.5-10c-6,0-11.8,2.5-15.8,6.9l-4.9-8.1c6.2-6,14-8.6,22.5-8.6c12,0,22.4,5,22.4,19.3L786.3,308z M761.9,301.4
	c5,0,10-1.9,12.7-5.5v-8.2c-2.8-3.6-7.8-5.5-12.7-5.5c-6.5,0-11.5,3.9-11.5,9.6S755.4,301.4,761.9,301.4z M813,308v-73.9h-11.6V308
	H813z" />
    <path class="st0" d="M344.4,309.3c-21.8,0-36.7-16.4-36.7-38.2s14.8-38.2,36.7-38.2s36.8,16.4,36.8,38.2S366.2,309.3,344.4,309.3z
	 M344.4,301.1c16.5,0,27.2-12.9,27.2-30s-10.8-30-27.2-30s-27.1,12.7-27.1,30S327.7,301.1,344.4,301.1L344.4,301.1z M437,308v-37.6
	c0-11.6-5.9-17.3-17-17.3c-7.4,0.2-14.3,3.5-19.2,9.1v-7.8h-8.3V308h8.3v-39.1c3.2-4.3,9.3-8.3,15.8-8.3c7.2,0,12.1,2.9,12.1,12.4
	v35L437,308z M475.5,309.3c-16,0-27.4-11.4-27.4-28.1c0-15.5,11.1-28,26.4-28c16.2,0,25.7,12.6,25.7,28.7v2.1H457
	c0.7,10.1,7.6,18.5,19.2,18.5c6.2,0,12.2-2.4,16.6-6.9l4,5.4C491.3,306.3,484.1,309.3,475.5,309.3z M492,277.8
	c-0.1-7.9-5.4-17.7-17.6-17.7c-11.4,0-17.1,9.6-17.5,17.7H492z" />
    <path class="st0" d="M186.1,326.9c21.5-7.4,35.9-27.6,36-50.2c0-29.5-24.2-53.4-54-53.4s-54,24-54,53.4c0,25.1,17.6,46.1,41.1,51.8
	v5.2c-26.4-5.8-46.2-29.1-46.2-57c0-32.3,26.5-58.5,59.1-58.5s59.1,26.2,59.1,58.5c-0.1,25.5-16.7,48.1-41.1,55.7L186.1,326.9z
	 M168.1,248.7c-15.5-0.1-28.2,12.5-28.3,28c0,10.5,6,20.1,15.4,24.8v5.7c-17-7.1-25.1-26.7-18-43.7c7.1-17,26.7-25.1,43.7-18
	s25.1,26.7,18,43.7c-2.6,6.3-7.1,11.7-12.9,15.3v-6.3c6.5-5.2,10.3-13.1,10.3-21.5C196.3,261.1,183.6,248.6,168.1,248.7L168.1,248.7
	z M73,276.6c0,31.9,16.4,61.6,43.3,78.8c1.6-1,3.2-2,4.8-2.9c1.2-0.6,2.3-1.3,3.5-1.9c1.4-0.7,2.9-1.4,4.3-2.1
	c1.5-0.7,3-1.3,4.5-1.9c1.2-0.5,2.5-0.9,3.7-1.4c1.7-0.6,3.5-1.1,5.3-1.6c1.3-0.4,2.7-0.7,4.1-1c1.4-0.3,2.8-0.6,4.2-0.9
	c1.4-0.3,3-0.5,4.5-0.7c1.7-0.2,3.4-0.4,5.1-0.5v-56.4h-5.1v-10.2H181v67c13.9,1.9,27.2,6.8,39,14.4c26.9-17.2,43.2-46.9,43.3-78.8
	c0-52-42.6-94.1-95.1-94.1S73,224.7,73,276.6z" />
    <rect class="st1" height="220" width="800" x="43" y="159" />
</svg>
