<svg fill="none" height="72" viewBox="0 0 72 72" width="72" xmlns="http://www.w3.org/2000/svg">
    <path
        d="M27.8047 60.6074H67.9609V44.2285H27.8047V60.6074ZM4.01465 34.335H44.1738V17.957H4.01465V34.335ZM49.5674 8.09863H57.0488V4.0332H49.5674V8.09863ZM14.9688 8.08398H46.2432V4.02246H14.9688V8.08398ZM71.2529 62.7207L71.2285 62.7715C71.023 63.2021 70.7381 63.4967 70.377 63.6777C70.1105 63.8113 69.8141 63.8779 69.4971 63.9004L69.1738 63.9092C66.4051 63.8746 63.6377 63.8965 60.8643 63.8965H60.3135C60.3109 65.6966 60.2838 67.4204 60.3291 69.1445V69.1455L60.3232 69.4717C60.3023 69.791 60.2341 70.0866 60.1006 70.3535C59.9209 70.7127 59.6327 71.0003 59.2275 71.2227L59.1709 71.2539H12.8301L12.7744 71.2236C12.3643 71.0003 12.0812 70.7093 11.9053 70.3486C11.7317 69.9928 11.6709 69.5868 11.6719 69.1455L11.6836 61.4072C11.6908 53.6694 11.6865 45.9316 11.6865 38.1934V37.6211C8.62628 37.6212 5.65621 37.6229 2.68848 37.6211V37.6201C2.05924 37.62 1.55448 37.4955 1.21387 37.1504C0.874008 36.806 0.751018 36.2971 0.750977 35.6631V16.5986L0.757812 16.374C0.786422 15.8638 0.918544 15.4476 1.21387 15.1533C1.55117 14.8172 2.04811 14.6924 2.66309 14.6914H11.6865V14.1396C11.6865 11.3191 11.6975 8.50197 11.6885 5.68457L11.6719 2.86719C11.668 2.425 11.7281 2.01765 11.9023 1.66113C12.0789 1.30003 12.3634 1.00942 12.7744 0.787109L12.8301 0.756836H58.8555V0.579102L59.2246 0.780273L59.373 0.867188C59.7046 1.0775 59.9406 1.34018 60.0947 1.65625C60.225 1.92352 60.2921 2.21881 60.3164 2.53613L60.3271 2.86035C60.2998 8.41938 60.3125 13.9765 60.3125 19.5371C60.3125 19.7018 60.3214 19.91 60.3018 20.1064L60.3027 20.1074C60.2272 20.9179 59.6426 21.5315 58.8691 21.6123L58.7119 21.6211C57.889 21.6292 57.2168 21.0517 57.1025 20.2256L57.0879 20.0566C57.0565 19.3223 57.0762 18.5783 57.0762 17.8584V11.4238H14.9717V14.6865H45.3359C46.072 14.6866 46.6357 14.7838 46.999 15.1436C47.3629 15.5041 47.4609 16.0641 47.4609 16.7939V35.5225C47.4609 36.2361 47.3559 36.7882 46.999 37.1494C46.6412 37.5115 46.0927 37.6191 45.3848 37.6191H14.9717V67.9756H57.0439V63.8926H26.7441C25.9547 63.8926 25.3634 63.8079 24.9932 63.4316C24.6244 63.0569 24.541 62.4598 24.541 61.6592V43C24.541 42.315 24.6555 41.7782 25.0146 41.4238C25.373 41.0705 25.9152 40.958 26.6084 40.958H57.0801V40.4609C57.0801 37.8182 57.0766 35.174 57.082 32.5322C57.0821 32.0898 57.1767 31.7048 57.3799 31.3984C57.5852 31.089 57.888 30.8806 58.2637 30.7695L58.4619 30.7227C58.9226 30.6445 59.3607 30.7736 59.6953 31.0566C60.0753 31.3782 60.3074 31.8854 60.3105 32.4785L60.3164 36.4443C60.316 37.7661 60.3145 39.0879 60.3145 40.4082V40.96H62.0244C64.3969 40.96 66.7628 40.9854 69.1289 40.9453L69.4531 40.9531C69.7705 40.9752 70.0664 41.0426 70.335 41.1729C70.6966 41.3484 70.9914 41.63 71.2207 42.0322L71.2529 42.0898V62.7207Z"
        fill="#FD6F00" stroke="#FD6F00" stroke-width="0.5" />
    <path
        d="M58.7974 24.2922C59.7491 24.3452 60.5334 25.1276 60.5571 26.1018L60.5513 26.2932C60.474 27.238 59.6609 28.0128 58.6948 28.0129C57.762 28.0129 56.9646 27.2852 56.8481 26.3762L56.8345 26.1926C56.8094 25.193 57.6036 24.3389 58.605 24.2913L58.7974 24.2922Z"
        fill="#FD6F00" stroke="#FD6F00" />
    <path
        d="M13.71 21.4988C15.2351 21.4988 16.7584 21.4933 18.2835 21.5006C19.3612 21.5061 19.8616 22.011 19.8653 23.0975C19.8726 25.1227 19.8726 27.1462 19.8653 29.1714C19.8616 30.2834 19.352 30.7902 18.2233 30.792C15.2205 30.7975 12.2178 30.7975 9.21322 30.792C8.08262 30.7902 7.56755 30.2852 7.5639 29.1787C7.55659 27.1535 7.55842 25.13 7.5639 23.1048C7.56755 21.9891 8.06618 21.5024 9.20591 21.4988C10.7073 21.4933 12.2086 21.4988 13.71 21.4988ZM17.0945 28.0285V24.2751H10.3475V28.0285H17.0945Z"
        fill="black" />
    <path
        d="M32.1849 24.2312C30.0004 24.2312 27.8178 24.2312 25.6333 24.2312C25.4507 24.2312 25.268 24.2385 25.0872 24.2276C24.2653 24.1729 23.6881 23.5914 23.7009 22.8367C23.7119 22.0729 24.289 21.5151 25.131 21.5042C26.3822 21.4878 27.6333 21.4987 28.8845 21.4987C32.0918 21.4987 35.2991 21.4987 38.5064 21.4987C40.0077 21.4987 40.6598 21.9198 40.6434 22.8786C40.6269 23.8101 39.9712 24.2312 38.5319 24.2312C36.4169 24.2312 34.3018 24.2312 32.1849 24.2312Z"
        fill="black" />
    <path
        d="M32.2053 28.0631C34.5487 28.0631 36.892 28.054 39.2336 28.0686C40.0683 28.0741 40.6436 28.6519 40.6436 29.4194C40.6436 30.1485 40.0884 30.7209 39.3048 30.7884C39.124 30.803 38.9414 30.7957 38.7587 30.7957C34.3678 30.7957 29.9788 30.7957 25.5879 30.7957C25.4509 30.7957 25.314 30.7993 25.1788 30.7957C24.3039 30.761 23.703 30.2014 23.7012 29.4248C23.7012 28.6355 24.2911 28.0722 25.1751 28.0686C27.5185 28.0576 29.8601 28.0649 32.2035 28.0668L32.2053 28.0631Z"
        fill="black" />
    <path
        d="M37.4799 57.0638C35.9548 57.0638 34.4315 57.0711 32.9064 57.062C31.8707 57.0565 31.3593 56.5425 31.3538 55.5034C31.3447 53.4563 31.3465 51.4091 31.3538 49.3602C31.3575 48.292 31.878 47.7724 32.9557 47.7706C35.9822 47.7633 39.0068 47.7633 42.0333 47.7706C43.1456 47.7724 43.6516 48.2883 43.6552 49.4094C43.6607 51.4347 43.6625 53.4581 43.6552 55.4834C43.6516 56.5571 43.1401 57.0565 42.0534 57.062C40.5283 57.0693 39.005 57.062 37.4799 57.062V57.0638ZM34.1173 54.2802H40.8643V50.5396H34.1173V54.2802Z"
        fill="black" />
    <path
        d="M55.9545 50.5032C53.6806 50.5032 51.4048 50.5069 49.1308 50.5032C48.1189 50.5014 47.5089 49.9983 47.4906 49.1707C47.4723 48.3285 48.1189 47.7725 49.1454 47.7725C53.6952 47.7689 58.245 47.7689 62.7929 47.7725C63.7938 47.7725 64.4148 48.2939 64.4331 49.116C64.4513 49.9655 63.8194 50.5014 62.7801 50.5032C60.5061 50.5069 58.2303 50.5032 55.9564 50.5032H55.9545Z"
        fill="black" />
    <path
        d="M55.9691 57.0657C53.6951 57.0657 51.4193 57.0676 49.1453 57.0657C48.1006 57.0657 47.4741 56.5334 47.4906 55.6803C47.507 54.8637 48.1353 54.335 49.1289 54.335C53.7006 54.3314 58.2723 54.3314 62.8458 54.335C63.7408 54.335 64.3216 54.7889 64.4239 55.5272C64.5134 56.1652 64.1024 56.8233 63.4668 57.0001C63.2312 57.0657 62.9718 57.0639 62.7234 57.0639C60.4714 57.0676 58.2193 57.0657 55.9673 57.0657H55.9691Z"
        fill="black" />
</svg>
