<svg fill="none" height="85" viewBox="0 0 49 85" width="49" xmlns="http://www.w3.org/2000/svg">
    <path
        d="M41.3027 0.5C43.4881 0.50006 45.2997 1.16443 46.5664 2.42969C47.8332 3.69508 48.4988 5.50587 48.5 7.68945V76.8223C48.5 78.9784 47.8288 80.7769 46.5664 82.0371C45.304 83.2973 43.5026 83.9668 41.3428 83.9668H7.65723C5.50019 83.9668 3.69896 83.2956 2.43652 82.0342C1.17426 80.7728 0.50201 78.9735 0.501953 76.8184V43.4092L0.5 43.4111V7.6875C0.5 5.50665 1.1668 3.69613 2.43457 2.43066C3.70223 1.16535 5.5156 0.5 7.7002 0.5H41.3027ZM3.52051 76.7061C3.52051 78.1703 3.91196 79.2129 4.59277 79.8906C5.2739 80.5685 6.32156 80.9579 7.79395 80.958H41.3906C41.6869 80.958 41.9404 80.9645 42.1973 80.9482L42.3672 80.9326C44.1108 80.7319 45.5544 79.3258 45.6123 77.6816L45.6396 76.6836C45.6845 74.5162 45.6439 72.3448 45.6377 70.1172H3.52051V76.7061ZM7.12207 3.51758H7.11816C5.40077 3.58209 3.92059 4.71646 3.68457 6.29102C3.58181 6.97834 3.56956 7.68834 3.58594 8.43164C3.59847 9.00037 3.62821 9.61473 3.64062 10.2246C5.41305 10.2258 7.17837 10.232 8.94727 10.2197H8.94824L9.24316 10.2305C9.54299 10.2547 9.84933 10.3269 10.1133 10.498C10.4966 10.7466 10.7076 11.1477 10.752 11.6582L10.7578 11.8359C10.7472 12.2443 10.572 12.6021 10.2441 12.8535C9.8959 13.1205 9.4267 13.2283 8.92871 13.2334H3.56836V67.0068H45.5869V13.2334H17.0625C17.0172 13.2334 16.9616 13.2382 16.8867 13.2451C16.8195 13.2513 16.7279 13.2601 16.6416 13.2646C16.4932 13.2725 16.2024 13.281 15.9561 13.1143L15.9541 13.1133C15.7689 12.9867 15.5439 12.8219 15.3496 12.6289C15.1624 12.443 14.9565 12.185 14.8809 11.8652L14.8799 11.8633C14.7776 11.4227 14.9006 11.0208 15.1768 10.7275C15.4369 10.4514 15.8034 10.2991 16.1699 10.2451L16.418 10.2227C16.6684 10.2101 16.9185 10.2246 17.085 10.2246H45.6504V7.68262C45.6504 6.27976 45.2562 5.25542 44.5791 4.58105C43.9017 3.9064 42.8718 3.51367 41.4619 3.51367H7.68848C7.47764 3.51367 7.30252 3.50935 7.12207 3.51758Z"
        fill="#FD6F00" stroke="#FD6F00" />
    <path
        d="M24.6101 16.0863C29.6626 16.0863 34.715 16.0863 39.7674 16.0863C40.9692 16.0863 41.2595 16.3724 41.2595 17.5592C41.2595 26.7495 41.2595 35.9376 41.2595 45.128C41.2595 46.3058 40.9647 46.5919 39.7584 46.5919C29.6536 46.5919 19.5465 46.5919 9.4416 46.5919C8.1858 46.5919 7.90674 46.317 7.90674 45.0766C7.90674 35.9153 7.90674 26.754 7.90674 17.5927C7.90674 16.3567 8.18355 16.0863 9.4506 16.0863C14.503 16.0863 19.5555 16.0863 24.6079 16.0863H24.6101ZM23.091 31.3402C18.689 27.3463 14.386 23.4395 9.99973 19.4612V43.2237C14.404 39.2253 18.7115 35.3163 23.091 31.3402ZM39.2138 19.4276C34.7825 23.4484 30.4593 27.3708 26.0842 31.3402C30.4773 35.3252 34.7915 39.241 39.2138 43.2528V19.4254V19.4276ZM11.5661 18.1358C16.0041 22.161 20.2869 26.0455 24.5921 29.9523C28.9469 25.9986 33.2184 22.1208 37.6047 18.1358H11.5661ZM24.5876 32.7259C20.2239 36.6886 15.9546 40.5641 11.5796 44.5379H37.6024C33.2027 40.544 28.9267 36.664 24.5876 32.7259Z"
        fill="black" />
    <path
        d="M24.5001 57.6574C19.5872 57.6574 14.6743 57.6574 9.76138 57.6574C9.48232 57.6574 9.12223 57.7423 8.93994 57.6038C8.61586 57.3602 8.19727 56.978 8.19727 56.6517C8.19727 56.3276 8.61811 55.9432 8.93994 55.6996C9.12448 55.561 9.48232 55.6481 9.76363 55.6481C19.6457 55.6481 29.5278 55.6481 39.4098 55.6481C39.6349 55.6481 39.8622 55.6325 40.0827 55.6593C40.6679 55.7286 41.019 56.0773 41.019 56.6539C41.019 57.2283 40.6656 57.5792 40.0827 57.6485C39.8329 57.6775 39.5786 57.6597 39.3243 57.6597C34.3821 57.6597 29.4422 57.6597 24.5001 57.6597V57.6574Z"
        fill="#FD6F00" />
    <path
        d="M24.5316 62.6861C19.6187 62.6861 14.7058 62.6861 9.7929 62.6861C9.51158 62.6861 9.15825 62.7755 8.9692 62.6414C8.63838 62.4068 8.17702 62.0134 8.19952 61.7184C8.22428 61.3608 8.65863 60.9898 8.99171 60.7171C9.14474 60.5919 9.48007 60.6791 9.73213 60.6791C19.6435 60.6791 29.5525 60.6791 39.4638 60.6791C39.6889 60.6791 39.9815 60.5986 40.1232 60.7082C40.4653 60.9741 40.9109 61.2937 40.9919 61.6603C41.1112 62.2011 40.6971 62.59 40.1142 62.6727C39.8667 62.7085 39.6101 62.6884 39.3581 62.6884C34.4159 62.6884 29.476 62.6884 24.5338 62.6884L24.5316 62.6861Z"
        fill="#FD6F00" />
    <path
        d="M16.8348 52.4611C14.3953 52.4611 11.9579 52.4633 9.51837 52.4611C8.62941 52.4611 8.14555 52.1057 8.13879 51.4687C8.12979 50.8273 8.61591 50.454 9.49361 50.454C14.3998 50.4496 19.3059 50.4518 24.2121 50.454C25.1303 50.454 25.5781 50.787 25.5871 51.4441C25.5961 52.0923 25.1213 52.4588 24.2368 52.4611C21.7702 52.4655 19.3037 52.4611 16.8348 52.4611Z"
        fill="#FD6F00" />
    <path
        d="M24.5875 78.7424C22.5351 78.7603 20.7616 77.0103 20.7549 74.9608C20.7504 72.8889 22.4428 71.1724 24.5335 71.1277C26.6243 71.0853 28.4157 72.8509 28.4044 74.9473C28.3954 77.0125 26.6715 78.7245 24.5853 78.7401L24.5875 78.7424ZM26.388 74.9451C26.397 73.9975 25.5935 73.1728 24.6371 73.1437C23.6513 73.1146 22.7916 73.9394 22.7826 74.925C22.7736 75.8659 23.5793 76.6974 24.5335 76.7309C25.5035 76.7644 26.3812 75.9218 26.3902 74.9451H26.388Z"
        fill="black" />
</svg>
