<svg fill="none" height="72" viewBox="0 0 84 72" width="84" xmlns="http://www.w3.org/2000/svg">
    <mask fill="black" height="72" id="path-1-outside-1_3285_941" maskUnits="userSpaceOnUse" width="84"
        x="0" y="0">
        <rect fill="white" height="72" width="84" />
        <path
            d="M83.0008 7.82165V64.1784C82.958 64.2802 82.8939 64.3753 82.8725 64.4816C82.0487 68.533 79.2203 70.9728 75.3028 70.9977C73.8885 71.0068 72.4743 70.9977 71.0579 70.9977C50.3194 70.9977 29.5808 71 8.84011 70.9977C4.26792 70.9977 1.0094 67.6661 1.00512 62.9471C0.99656 44.9786 0.99656 27.0146 1.02223 9.05063C1.02223 8.13399 1.172 7.18113 1.44372 6.31202C2.48782 2.97135 5.27564 1 8.84439 1C30.9437 1 53.0451 1 75.1444 1C75.3584 1 75.5724 1 75.7842 1.00905C78.7346 1.16975 80.8891 2.66354 82.2178 5.43611C82.5729 6.17848 82.7441 7.02044 82.9987 7.81712L83.0008 7.82165ZM15.6417 67.562C15.6417 64.1919 15.6417 60.9124 15.6417 57.6328C15.6417 55.0594 15.6246 52.4838 15.6481 49.9104C15.6717 47.3958 17.1629 45.8409 19.5164 45.8341C21.2516 45.8296 22.9867 45.8319 24.7198 45.8341C27.2894 45.8364 28.725 47.3574 28.7271 50.0914C28.7314 55.58 28.7271 61.0663 28.7271 66.5548C28.7271 66.883 28.7271 67.2112 28.7271 67.5575H33.5218C33.5218 67.2067 33.5218 66.9034 33.5218 66.6001C33.5218 63.7144 33.5176 60.8286 33.5261 57.9452C33.5261 57.5242 33.5539 57.0964 33.6181 56.6822C33.8385 55.2496 34.6815 54.2673 35.8047 53.4955C34.4333 50.0009 33.0832 46.5607 31.7332 43.1227C30.4987 39.9789 30.9287 37.9125 33.2351 35.5632C36.1107 32.6344 38.8172 29.5586 40.6016 25.7087C40.8819 25.1044 41.3611 24.7807 42.0158 24.7807C42.7026 24.7807 43.1583 25.1315 43.4878 25.754C44.0377 26.786 44.4998 27.9064 45.208 28.8004C47.1421 31.2425 49.1383 33.6371 51.2009 35.9593C52.8975 37.8695 53.4217 40.1374 52.4931 42.5795C52.016 43.8356 51.5154 45.085 51.0276 46.3366C50.0969 48.7335 49.1683 51.1303 48.2269 53.5498C49.9728 54.6498 50.5333 56.2929 50.4927 58.3164C50.4349 61.0867 50.4777 63.8592 50.4777 66.6318V67.5371H54.9643C54.9643 67.1614 54.9643 66.8536 54.9643 66.5435C54.9643 62.4695 54.9215 58.3956 54.9985 54.3239C55.0157 53.4774 55.281 52.4634 55.7816 51.841C56.3892 51.085 56.5198 50.3653 56.4919 49.4758C56.4384 47.6901 57.1766 46.3932 58.6743 45.5535C58.8882 45.4335 59.0958 45.0714 59.1065 44.8134C59.1535 43.684 59.1172 42.5523 59.13 41.4207C59.1428 40.298 59.759 39.5783 60.6919 39.5602C61.6525 39.5421 62.3093 40.2845 62.3265 41.441C62.3436 42.5433 62.3521 43.6478 62.32 44.75C62.3072 45.2095 62.4377 45.4471 62.8442 45.6418C63.8734 46.1352 64.5773 46.9952 64.8126 48.1631C64.9602 48.8987 64.8854 49.6818 64.9538 50.44C64.9795 50.7229 65.0544 51.0783 65.2341 51.2525C66.1734 52.1624 66.5071 53.2827 66.5007 54.5977C66.4793 58.6151 66.4943 62.6302 66.4943 66.6476C66.4943 66.9487 66.4943 67.2474 66.4943 67.6073C69.4533 67.6073 72.3031 67.6118 75.1551 67.6073C78.0628 67.6028 79.7958 65.7763 79.7958 62.7117C79.7979 50.0394 79.7958 37.3671 79.7958 24.6924C79.7958 24.3937 79.7958 24.0972 79.7958 23.8007H4.20587C4.20587 24.1447 4.20587 24.448 4.20587 24.7513C4.20587 37.3671 4.20587 49.9828 4.20587 62.6008C4.20587 62.8837 4.19945 63.1667 4.21871 63.4496C4.3535 65.4956 5.89183 67.424 7.78532 67.5281C10.3613 67.6707 12.948 67.5643 15.6417 67.5643V67.562ZM4.21657 20.2948H79.7851C79.7851 16.3272 79.7851 12.423 79.783 8.52102C79.783 8.38069 79.7551 8.24037 79.7295 8.1023C79.2973 5.76882 77.6113 4.39498 75.1509 4.39498C53.0494 4.39498 30.9501 4.39498 8.84867 4.39498C8.63472 4.39498 8.42076 4.39498 8.20895 4.4063C6.11862 4.50815 4.28289 6.3007 4.23796 8.52328C4.16094 12.423 4.21657 16.3272 4.21657 20.2971V20.2948ZM40.4005 52.9478C40.4005 50.2069 40.394 47.4954 40.4047 44.7862C40.409 43.6206 41.0552 42.8986 42.0329 42.9167C42.9743 42.9326 43.5905 43.641 43.5991 44.7681C43.6119 46.8028 43.6033 48.8398 43.6033 50.8746C43.6033 51.5739 43.6033 52.2755 43.6033 53.0949C44.2024 52.8957 44.8357 53.4095 45.1759 52.52C46.6158 48.7538 48.0921 45.0012 49.547 41.2419C49.9685 40.1532 49.7545 39.2026 48.9501 38.3901C48.274 37.7066 47.5743 37.0457 46.9581 36.3056C45.2701 34.2776 43.6226 32.2135 41.9388 30.1403C41.9302 30.1516 41.834 30.2421 41.7633 30.353C39.8977 33.2704 37.6469 35.8303 35.2335 38.2407C34.1744 39.2977 34.0118 40.0876 34.5659 41.5021C35.9459 45.0216 37.3645 48.523 38.6888 52.0651C39.0312 52.9794 39.4826 53.2442 40.4026 52.9523L40.4005 52.9478ZM47.2791 67.5779V66.745C47.2791 63.8343 47.2791 60.926 47.2791 58.0153C47.2791 56.7501 47.0052 56.4468 45.8327 56.4446C43.2739 56.4378 40.715 56.4378 38.1561 56.4446C37.0157 56.4468 36.7269 56.7547 36.7247 57.9452C36.7205 60.9124 36.7226 63.8773 36.7247 66.8446C36.7247 67.0867 36.7547 67.3266 36.7718 67.5801H47.2769L47.2791 67.5779ZM25.5242 67.5665C25.5242 66.5684 25.5242 65.6676 25.5242 64.7646C25.5242 59.9029 25.5242 55.0391 25.5242 50.1775C25.5242 49.6773 25.5649 49.2065 24.8588 49.2155C23.0723 49.2404 21.2837 49.2042 19.4993 49.2495C19.2789 49.254 18.9109 49.5731 18.881 49.7859C18.7975 50.4128 18.851 51.0601 18.851 51.755C19.6084 51.755 20.246 51.7459 20.8836 51.755C21.994 51.7731 22.7129 52.4272 22.7257 53.4163C22.7407 54.437 21.9983 55.1251 20.8493 55.1432C20.2139 55.1522 19.5785 55.1432 18.9131 55.1432V57.2368C19.6747 57.2368 20.3658 57.2119 21.0569 57.2435C22.0389 57.2865 22.7172 57.9927 22.7257 58.9297C22.7343 59.8962 22.0261 60.6 20.9991 60.6249C20.3145 60.6408 19.6277 60.6272 18.9109 60.6272V62.7593C19.6148 62.7593 20.2503 62.7479 20.8879 62.7615C22.009 62.7864 22.7172 63.436 22.7279 64.4273C22.7407 65.4481 22.0068 66.1248 20.8472 66.1474C20.2139 66.1588 19.5785 66.1474 18.9045 66.1474V67.5575H25.5242V67.5665ZM63.2914 67.562C63.2914 63.1033 63.2871 58.7509 63.2978 54.3985C63.2978 53.878 63.0432 53.801 62.6388 53.8033C61.4107 53.8169 60.1826 53.8463 58.9567 53.792C58.2956 53.7626 58.1522 54.0228 58.1565 54.6724C58.18 58.7441 58.1672 62.8181 58.1715 66.8898C58.1715 67.1071 58.2036 67.3244 58.2228 67.562H63.2914ZM61.8258 50.3721C61.7124 49.7836 61.7659 48.9937 61.4749 48.8059C61.0834 48.5524 60.3046 48.5705 59.9216 48.8398C59.6413 49.0367 59.7312 49.8244 59.652 50.3721H61.8258Z" />
    </mask>
    <path
        d="M83.0008 7.82165V64.1784C82.958 64.2802 82.8939 64.3753 82.8725 64.4816C82.0487 68.533 79.2203 70.9728 75.3028 70.9977C73.8885 71.0068 72.4743 70.9977 71.0579 70.9977C50.3194 70.9977 29.5808 71 8.84011 70.9977C4.26792 70.9977 1.0094 67.6661 1.00512 62.9471C0.99656 44.9786 0.99656 27.0146 1.02223 9.05063C1.02223 8.13399 1.172 7.18113 1.44372 6.31202C2.48782 2.97135 5.27564 1 8.84439 1C30.9437 1 53.0451 1 75.1444 1C75.3584 1 75.5724 1 75.7842 1.00905C78.7346 1.16975 80.8891 2.66354 82.2178 5.43611C82.5729 6.17848 82.7441 7.02044 82.9987 7.81712L83.0008 7.82165ZM15.6417 67.562C15.6417 64.1919 15.6417 60.9124 15.6417 57.6328C15.6417 55.0594 15.6246 52.4838 15.6481 49.9104C15.6717 47.3958 17.1629 45.8409 19.5164 45.8341C21.2516 45.8296 22.9867 45.8319 24.7198 45.8341C27.2894 45.8364 28.725 47.3574 28.7271 50.0914C28.7314 55.58 28.7271 61.0663 28.7271 66.5548C28.7271 66.883 28.7271 67.2112 28.7271 67.5575H33.5218C33.5218 67.2067 33.5218 66.9034 33.5218 66.6001C33.5218 63.7144 33.5176 60.8286 33.5261 57.9452C33.5261 57.5242 33.5539 57.0964 33.6181 56.6822C33.8385 55.2496 34.6815 54.2673 35.8047 53.4955C34.4333 50.0009 33.0832 46.5607 31.7332 43.1227C30.4987 39.9789 30.9287 37.9125 33.2351 35.5632C36.1107 32.6344 38.8172 29.5586 40.6016 25.7087C40.8819 25.1044 41.3611 24.7807 42.0158 24.7807C42.7026 24.7807 43.1583 25.1315 43.4878 25.754C44.0377 26.786 44.4998 27.9064 45.208 28.8004C47.1421 31.2425 49.1383 33.6371 51.2009 35.9593C52.8975 37.8695 53.4217 40.1374 52.4931 42.5795C52.016 43.8356 51.5154 45.085 51.0276 46.3366C50.0969 48.7335 49.1683 51.1303 48.2269 53.5498C49.9728 54.6498 50.5333 56.2929 50.4927 58.3164C50.4349 61.0867 50.4777 63.8592 50.4777 66.6318V67.5371H54.9643C54.9643 67.1614 54.9643 66.8536 54.9643 66.5435C54.9643 62.4695 54.9215 58.3956 54.9985 54.3239C55.0157 53.4774 55.281 52.4634 55.7816 51.841C56.3892 51.085 56.5198 50.3653 56.4919 49.4758C56.4384 47.6901 57.1766 46.3932 58.6743 45.5535C58.8882 45.4335 59.0958 45.0714 59.1065 44.8134C59.1535 43.684 59.1172 42.5523 59.13 41.4207C59.1428 40.298 59.759 39.5783 60.6919 39.5602C61.6525 39.5421 62.3093 40.2845 62.3265 41.441C62.3436 42.5433 62.3521 43.6478 62.32 44.75C62.3072 45.2095 62.4377 45.4471 62.8442 45.6418C63.8734 46.1352 64.5773 46.9952 64.8126 48.1631C64.9602 48.8987 64.8854 49.6818 64.9538 50.44C64.9795 50.7229 65.0544 51.0783 65.2341 51.2525C66.1734 52.1624 66.5071 53.2827 66.5007 54.5977C66.4793 58.6151 66.4943 62.6302 66.4943 66.6476C66.4943 66.9487 66.4943 67.2474 66.4943 67.6073C69.4533 67.6073 72.3031 67.6118 75.1551 67.6073C78.0628 67.6028 79.7958 65.7763 79.7958 62.7117C79.7979 50.0394 79.7958 37.3671 79.7958 24.6924C79.7958 24.3937 79.7958 24.0972 79.7958 23.8007H4.20587C4.20587 24.1447 4.20587 24.448 4.20587 24.7513C4.20587 37.3671 4.20587 49.9828 4.20587 62.6008C4.20587 62.8837 4.19945 63.1667 4.21871 63.4496C4.3535 65.4956 5.89183 67.424 7.78532 67.5281C10.3613 67.6707 12.948 67.5643 15.6417 67.5643V67.562ZM4.21657 20.2948H79.7851C79.7851 16.3272 79.7851 12.423 79.783 8.52102C79.783 8.38069 79.7551 8.24037 79.7295 8.1023C79.2973 5.76882 77.6113 4.39498 75.1509 4.39498C53.0494 4.39498 30.9501 4.39498 8.84867 4.39498C8.63472 4.39498 8.42076 4.39498 8.20895 4.4063C6.11862 4.50815 4.28289 6.3007 4.23796 8.52328C4.16094 12.423 4.21657 16.3272 4.21657 20.2971V20.2948ZM40.4005 52.9478C40.4005 50.2069 40.394 47.4954 40.4047 44.7862C40.409 43.6206 41.0552 42.8986 42.0329 42.9167C42.9743 42.9326 43.5905 43.641 43.5991 44.7681C43.6119 46.8028 43.6033 48.8398 43.6033 50.8746C43.6033 51.5739 43.6033 52.2755 43.6033 53.0949C44.2024 52.8957 44.8357 53.4095 45.1759 52.52C46.6158 48.7538 48.0921 45.0012 49.547 41.2419C49.9685 40.1532 49.7545 39.2026 48.9501 38.3901C48.274 37.7066 47.5743 37.0457 46.9581 36.3056C45.2701 34.2776 43.6226 32.2135 41.9388 30.1403C41.9302 30.1516 41.834 30.2421 41.7633 30.353C39.8977 33.2704 37.6469 35.8303 35.2335 38.2407C34.1744 39.2977 34.0118 40.0876 34.5659 41.5021C35.9459 45.0216 37.3645 48.523 38.6888 52.0651C39.0312 52.9794 39.4826 53.2442 40.4026 52.9523L40.4005 52.9478ZM47.2791 67.5779V66.745C47.2791 63.8343 47.2791 60.926 47.2791 58.0153C47.2791 56.7501 47.0052 56.4468 45.8327 56.4446C43.2739 56.4378 40.715 56.4378 38.1561 56.4446C37.0157 56.4468 36.7269 56.7547 36.7247 57.9452C36.7205 60.9124 36.7226 63.8773 36.7247 66.8446C36.7247 67.0867 36.7547 67.3266 36.7718 67.5801H47.2769L47.2791 67.5779ZM25.5242 67.5665C25.5242 66.5684 25.5242 65.6676 25.5242 64.7646C25.5242 59.9029 25.5242 55.0391 25.5242 50.1775C25.5242 49.6773 25.5649 49.2065 24.8588 49.2155C23.0723 49.2404 21.2837 49.2042 19.4993 49.2495C19.2789 49.254 18.9109 49.5731 18.881 49.7859C18.7975 50.4128 18.851 51.0601 18.851 51.755C19.6084 51.755 20.246 51.7459 20.8836 51.755C21.994 51.7731 22.7129 52.4272 22.7257 53.4163C22.7407 54.437 21.9983 55.1251 20.8493 55.1432C20.2139 55.1522 19.5785 55.1432 18.9131 55.1432V57.2368C19.6747 57.2368 20.3658 57.2119 21.0569 57.2435C22.0389 57.2865 22.7172 57.9927 22.7257 58.9297C22.7343 59.8962 22.0261 60.6 20.9991 60.6249C20.3145 60.6408 19.6277 60.6272 18.9109 60.6272V62.7593C19.6148 62.7593 20.2503 62.7479 20.8879 62.7615C22.009 62.7864 22.7172 63.436 22.7279 64.4273C22.7407 65.4481 22.0068 66.1248 20.8472 66.1474C20.2139 66.1588 19.5785 66.1474 18.9045 66.1474V67.5575H25.5242V67.5665ZM63.2914 67.562C63.2914 63.1033 63.2871 58.7509 63.2978 54.3985C63.2978 53.878 63.0432 53.801 62.6388 53.8033C61.4107 53.8169 60.1826 53.8463 58.9567 53.792C58.2956 53.7626 58.1522 54.0228 58.1565 54.6724C58.18 58.7441 58.1672 62.8181 58.1715 66.8898C58.1715 67.1071 58.2036 67.3244 58.2228 67.562H63.2914ZM61.8258 50.3721C61.7124 49.7836 61.7659 48.9937 61.4749 48.8059C61.0834 48.5524 60.3046 48.5705 59.9216 48.8398C59.6413 49.0367 59.7312 49.8244 59.652 50.3721H61.8258Z"
        fill="#FD6F00" />
    <path
        d="M83.0008 7.82165V64.1784C82.958 64.2802 82.8939 64.3753 82.8725 64.4816C82.0487 68.533 79.2203 70.9728 75.3028 70.9977C73.8885 71.0068 72.4743 70.9977 71.0579 70.9977C50.3194 70.9977 29.5808 71 8.84011 70.9977C4.26792 70.9977 1.0094 67.6661 1.00512 62.9471C0.99656 44.9786 0.99656 27.0146 1.02223 9.05063C1.02223 8.13399 1.172 7.18113 1.44372 6.31202C2.48782 2.97135 5.27564 1 8.84439 1C30.9437 1 53.0451 1 75.1444 1C75.3584 1 75.5724 1 75.7842 1.00905C78.7346 1.16975 80.8891 2.66354 82.2178 5.43611C82.5729 6.17848 82.7441 7.02044 82.9987 7.81712L83.0008 7.82165ZM15.6417 67.562C15.6417 64.1919 15.6417 60.9124 15.6417 57.6328C15.6417 55.0594 15.6246 52.4838 15.6481 49.9104C15.6717 47.3958 17.1629 45.8409 19.5164 45.8341C21.2516 45.8296 22.9867 45.8319 24.7198 45.8341C27.2894 45.8364 28.725 47.3574 28.7271 50.0914C28.7314 55.58 28.7271 61.0663 28.7271 66.5548C28.7271 66.883 28.7271 67.2112 28.7271 67.5575H33.5218C33.5218 67.2067 33.5218 66.9034 33.5218 66.6001C33.5218 63.7144 33.5176 60.8286 33.5261 57.9452C33.5261 57.5242 33.5539 57.0964 33.6181 56.6822C33.8385 55.2496 34.6815 54.2673 35.8047 53.4955C34.4333 50.0009 33.0832 46.5607 31.7332 43.1227C30.4987 39.9789 30.9287 37.9125 33.2351 35.5632C36.1107 32.6344 38.8172 29.5586 40.6016 25.7087C40.8819 25.1044 41.3611 24.7807 42.0158 24.7807C42.7026 24.7807 43.1583 25.1315 43.4878 25.754C44.0377 26.786 44.4998 27.9064 45.208 28.8004C47.1421 31.2425 49.1383 33.6371 51.2009 35.9593C52.8975 37.8695 53.4217 40.1374 52.4931 42.5795C52.016 43.8356 51.5154 45.085 51.0276 46.3366C50.0969 48.7335 49.1683 51.1303 48.2269 53.5498C49.9728 54.6498 50.5333 56.2929 50.4927 58.3164C50.4349 61.0867 50.4777 63.8592 50.4777 66.6318V67.5371H54.9643C54.9643 67.1614 54.9643 66.8536 54.9643 66.5435C54.9643 62.4695 54.9215 58.3956 54.9985 54.3239C55.0157 53.4774 55.281 52.4634 55.7816 51.841C56.3892 51.085 56.5198 50.3653 56.4919 49.4758C56.4384 47.6901 57.1766 46.3932 58.6743 45.5535C58.8882 45.4335 59.0958 45.0714 59.1065 44.8134C59.1535 43.684 59.1172 42.5523 59.13 41.4207C59.1428 40.298 59.759 39.5783 60.6919 39.5602C61.6525 39.5421 62.3093 40.2845 62.3265 41.441C62.3436 42.5433 62.3521 43.6478 62.32 44.75C62.3072 45.2095 62.4377 45.4471 62.8442 45.6418C63.8734 46.1352 64.5773 46.9952 64.8126 48.1631C64.9602 48.8987 64.8854 49.6818 64.9538 50.44C64.9795 50.7229 65.0544 51.0783 65.2341 51.2525C66.1734 52.1624 66.5071 53.2827 66.5007 54.5977C66.4793 58.6151 66.4943 62.6302 66.4943 66.6476C66.4943 66.9487 66.4943 67.2474 66.4943 67.6073C69.4533 67.6073 72.3031 67.6118 75.1551 67.6073C78.0628 67.6028 79.7958 65.7763 79.7958 62.7117C79.7979 50.0394 79.7958 37.3671 79.7958 24.6924C79.7958 24.3937 79.7958 24.0972 79.7958 23.8007H4.20587C4.20587 24.1447 4.20587 24.448 4.20587 24.7513C4.20587 37.3671 4.20587 49.9828 4.20587 62.6008C4.20587 62.8837 4.19945 63.1667 4.21871 63.4496C4.3535 65.4956 5.89183 67.424 7.78532 67.5281C10.3613 67.6707 12.948 67.5643 15.6417 67.5643V67.562ZM4.21657 20.2948H79.7851C79.7851 16.3272 79.7851 12.423 79.783 8.52102C79.783 8.38069 79.7551 8.24037 79.7295 8.1023C79.2973 5.76882 77.6113 4.39498 75.1509 4.39498C53.0494 4.39498 30.9501 4.39498 8.84867 4.39498C8.63472 4.39498 8.42076 4.39498 8.20895 4.4063C6.11862 4.50815 4.28289 6.3007 4.23796 8.52328C4.16094 12.423 4.21657 16.3272 4.21657 20.2971V20.2948ZM40.4005 52.9478C40.4005 50.2069 40.394 47.4954 40.4047 44.7862C40.409 43.6206 41.0552 42.8986 42.0329 42.9167C42.9743 42.9326 43.5905 43.641 43.5991 44.7681C43.6119 46.8028 43.6033 48.8398 43.6033 50.8746C43.6033 51.5739 43.6033 52.2755 43.6033 53.0949C44.2024 52.8957 44.8357 53.4095 45.1759 52.52C46.6158 48.7538 48.0921 45.0012 49.547 41.2419C49.9685 40.1532 49.7545 39.2026 48.9501 38.3901C48.274 37.7066 47.5743 37.0457 46.9581 36.3056C45.2701 34.2776 43.6226 32.2135 41.9388 30.1403C41.9302 30.1516 41.834 30.2421 41.7633 30.353C39.8977 33.2704 37.6469 35.8303 35.2335 38.2407C34.1744 39.2977 34.0118 40.0876 34.5659 41.5021C35.9459 45.0216 37.3645 48.523 38.6888 52.0651C39.0312 52.9794 39.4826 53.2442 40.4026 52.9523L40.4005 52.9478ZM47.2791 67.5779V66.745C47.2791 63.8343 47.2791 60.926 47.2791 58.0153C47.2791 56.7501 47.0052 56.4468 45.8327 56.4446C43.2739 56.4378 40.715 56.4378 38.1561 56.4446C37.0157 56.4468 36.7269 56.7547 36.7247 57.9452C36.7205 60.9124 36.7226 63.8773 36.7247 66.8446C36.7247 67.0867 36.7547 67.3266 36.7718 67.5801H47.2769L47.2791 67.5779ZM25.5242 67.5665C25.5242 66.5684 25.5242 65.6676 25.5242 64.7646C25.5242 59.9029 25.5242 55.0391 25.5242 50.1775C25.5242 49.6773 25.5649 49.2065 24.8588 49.2155C23.0723 49.2404 21.2837 49.2042 19.4993 49.2495C19.2789 49.254 18.9109 49.5731 18.881 49.7859C18.7975 50.4128 18.851 51.0601 18.851 51.755C19.6084 51.755 20.246 51.7459 20.8836 51.755C21.994 51.7731 22.7129 52.4272 22.7257 53.4163C22.7407 54.437 21.9983 55.1251 20.8493 55.1432C20.2139 55.1522 19.5785 55.1432 18.9131 55.1432V57.2368C19.6747 57.2368 20.3658 57.2119 21.0569 57.2435C22.0389 57.2865 22.7172 57.9927 22.7257 58.9297C22.7343 59.8962 22.0261 60.6 20.9991 60.6249C20.3145 60.6408 19.6277 60.6272 18.9109 60.6272V62.7593C19.6148 62.7593 20.2503 62.7479 20.8879 62.7615C22.009 62.7864 22.7172 63.436 22.7279 64.4273C22.7407 65.4481 22.0068 66.1248 20.8472 66.1474C20.2139 66.1588 19.5785 66.1474 18.9045 66.1474V67.5575H25.5242V67.5665ZM63.2914 67.562C63.2914 63.1033 63.2871 58.7509 63.2978 54.3985C63.2978 53.878 63.0432 53.801 62.6388 53.8033C61.4107 53.8169 60.1826 53.8463 58.9567 53.792C58.2956 53.7626 58.1522 54.0228 58.1565 54.6724C58.18 58.7441 58.1672 62.8181 58.1715 66.8898C58.1715 67.1071 58.2036 67.3244 58.2228 67.562H63.2914ZM61.8258 50.3721C61.7124 49.7836 61.7659 48.9937 61.4749 48.8059C61.0834 48.5524 60.3046 48.5705 59.9216 48.8398C59.6413 49.0367 59.7312 49.8244 59.652 50.3721H61.8258Z"
        mask="url(#path-1-outside-1_3285_941)" stroke="#FD6F00" />
    <path
        d="M25.4299 7.76954C28.1064 7.76501 30.2802 10.051 30.2866 12.8779C30.293 15.6866 28.1043 18.0065 25.4427 18.0111C22.7833 18.0156 20.5902 15.7025 20.5859 12.8914C20.5817 10.0691 22.7533 7.77406 25.4299 7.76954ZM25.4534 11.169C24.5569 11.16 23.8166 11.9092 23.7953 12.8462C23.7717 13.8013 24.5484 14.6251 25.4598 14.6116C26.3392 14.598 27.0794 13.8058 27.0794 12.8801C27.0794 11.9454 26.3456 11.1758 25.4534 11.1668V11.169Z"
        fill="black" />
    <path
        d="M17.2081 12.9097C17.1974 15.7501 15.0429 18.018 12.3599 18.0089C9.68978 17.9999 7.55024 15.7026 7.55666 12.8576C7.56521 10.0171 9.72401 7.75381 12.4091 7.76739C15.0985 7.78097 17.2188 10.0511 17.2081 12.9097ZM10.7617 12.8644C10.7531 13.8286 11.4635 14.6004 12.3642 14.6117C13.2756 14.623 13.9903 13.8761 14.0009 12.9051C14.0116 11.9274 13.3227 11.1805 12.4027 11.1714C11.4827 11.1624 10.7702 11.8957 10.7638 12.8667L10.7617 12.8644Z"
        fill="black" />
    <path
        d="M38.4727 7.76736C41.1621 7.75831 43.3059 10.0171 43.3102 12.8666C43.3166 15.7139 41.177 17.9998 38.5005 18.0066C35.8261 18.0134 33.663 15.732 33.6587 12.8983C33.6544 10.0488 35.7854 7.77415 38.4727 7.76736ZM40.103 12.9028C40.1115 11.9251 39.4226 11.1782 38.5026 11.1691C37.5826 11.1601 36.8723 11.8957 36.8637 12.8644C36.8573 13.8285 37.5655 14.6003 38.4684 14.6094C39.3798 14.6184 40.0944 13.8715 40.103 12.9006V12.9028Z"
        fill="black" />
    <path
        d="M41.9623 40.7167C41.1107 40.6918 40.3983 39.9042 40.4068 38.9966C40.4154 38.0415 41.1642 37.2991 42.0799 37.3421C42.9507 37.3828 43.6311 38.1592 43.5969 39.0781C43.5648 39.9789 42.8052 40.7394 41.9623 40.7145V40.7167Z"
        fill="#FD6F00" />
</svg>
