<svg xmlns:xlink="http://www.w3.org/1999/xlink" height="64" width="64"
    xmlns="http://www.w3.org/2000/svg">
    <g transform="matrix(.061615 0 0 .061615 -1.430818 -1.2754)">
        <defs>
            <path d="M959.4 500L679.8 779.7l279.6 279.7H639.9L360.2 779.7 639.9 500h319.5zM639.9 20.7L120.6 540l159.8 159.8 679-679.1H639.9z"
                id="A" />
        </defs>
        <clipPath id="B">
            <use xlink:href="#A" />
        </clipPath>
        <g clip-path="url(#B)">
            <path d="M360.3 779.7L520 939.5 959.4 500H639.9z" fill="#39cefd" />
        </g>
        <defs>
            <path d="M959.4 500L679.8 779.7l279.6 279.7H639.9L360.2 779.7 639.9 500h319.5zM639.9 20.7L120.6 540l159.8 159.8 679-679.1H639.9z"
                id="C" />
        </defs>
        <clipPath id="D">
            <use xlink:href="#C" />
        </clipPath>
        <path clip-path="url(#D)" d="M639.9 20.7h319.5l-679 679.1L120.6 540z" fill="#39cefd" />
        <defs>
            <path d="M959.4 500L679.8 779.7l279.6 279.7H639.9L360.2 779.7 639.9 500h319.5zM639.9 20.7L120.6 540l159.8 159.8 679-679.1H639.9z"
                id="E" />
        </defs>
        <clipPath id="F">
            <use xlink:href="#E" />
        </clipPath>
        <path clip-path="url(#F)" d="M520 939.5l119.9 119.8h319.5L679.8 779.7z" fill="#03569b" />
        <defs>
            <path d="M959.4 500L679.8 779.7l279.6 279.7H639.9L360.2 779.7 639.9 500h319.5zM639.9 20.7L120.6 540l159.8 159.8 679-679.1H639.9z"
                id="G" />
        </defs>
        <clipPath id="H">
            <use xlink:href="#G" />
        </clipPath>
        <linearGradient gradientUnits="userSpaceOnUse" id="I" x1="566.635" x2="685.65" y1="970.339"
            y2="851.324">
            <stop offset="0" stop-color="#1a237e" stop-opacity=".4" />
            <stop offset="1" stop-color="#1a237e" stop-opacity="0" />
        </linearGradient>
        <path clip-path="url(#H)" d="M757 857.4l-77.2-77.7L520 939.5z" fill="url(#I)" />
        <defs>
            <path d="M959.4 500L679.8 779.7l279.6 279.7H639.9L360.2 779.7 639.9 500h319.5zM639.9 20.7L120.6 540l159.8 159.8 679-679.1H639.9z"
                id="J" />
        </defs>
        <clipPath id="K">
            <use xlink:href="#J" />
        </clipPath>
        <g clip-path="url(#K)">
            <path d="M360.282 779.645L520.086 619.84 679.9 779.645 520.086 939.45z"
                fill="#16b9fd" />
        </g>
        <radialGradient cx="7824.659" cy="-2855.979" gradientTransform="matrix(0.25,0,0,-0.25,-1812,-622.5)" gradientUnits="userSpaceOnUse"
            id="L" r="5082.889">
            <stop offset="0" stop-color="#fff" stop-opacity=".1" />
            <stop offset="1" stop-color="#fff" stop-opacity="0" />
        </radialGradient>
        <path
            d="M959.4 500L679.8 779.7l279.6 279.7H639.9L360.2 779.7 639.9 500h319.5zM639.9 20.7L120.6 540l159.8 159.8 679-679.1H639.9z"
            fill="url(#L)" />
    </g>
</svg>