<?xml version="1.0" encoding="UTF-8" standalone="yes"?>
<svg baseProfile="tiny-ps" fill="none" height="300" version="1.2" viewBox="0 0 300 300"
    width="300" xmlns="http://www.w3.org/2000/svg">
    <title>OneSignal</title>
    <path
        d="M149.702 0.000288324C66.9444 0.161206 -0.468805 68.1089 0.00245585 150.867C0.416246 228.159 59.3583 291.613 134.76 299.222C135 299.246 135.243 299.219 135.473 299.144C135.702 299.068 135.913 298.945 136.092 298.782C136.271 298.62 136.414 298.421 136.511 298.2C136.608 297.979 136.658 297.739 136.656 297.498V149.999H125.036C124.579 149.999 124.14 149.817 123.817 149.494C123.493 149.171 123.312 148.732 123.312 148.275V125.022C123.312 124.565 123.493 124.126 123.817 123.803C124.14 123.48 124.579 123.298 125.036 123.298H161.622C162.079 123.298 162.518 123.48 162.841 123.803C163.164 124.126 163.346 124.565 163.346 125.022V297.498C163.345 297.739 163.394 297.978 163.491 298.198C163.588 298.419 163.73 298.617 163.908 298.78C164.087 298.942 164.297 299.066 164.526 299.142C164.754 299.218 164.997 299.245 165.237 299.222C240.92 291.584 300 227.694 300 149.999C300 67.0572 232.679 -0.16063 149.702 0.000288324ZM192.369 265.803C192.109 265.895 191.83 265.923 191.557 265.885C191.284 265.847 191.023 265.744 190.798 265.585C190.573 265.425 190.389 265.214 190.263 264.969C190.136 264.724 190.07 264.452 190.07 264.176V239.556C190.071 239.066 190.211 238.587 190.473 238.174C190.736 237.761 191.11 237.431 191.553 237.222C208.024 229.359 221.935 216.996 231.677 201.562C241.42 186.127 246.597 168.251 246.61 149.999C246.61 96.2236 202.449 52.5746 148.495 53.4021C97.174 54.1837 55.0767 95.5569 53.4388 146.855C52.8399 165.635 57.7248 184.182 67.4963 200.231C77.2677 216.279 91.5027 229.133 108.461 237.222C108.905 237.431 109.28 237.761 109.543 238.174C109.807 238.587 109.948 239.066 109.95 239.556V264.182C109.95 264.458 109.884 264.73 109.757 264.975C109.63 265.22 109.447 265.431 109.221 265.59C108.996 265.75 108.736 265.853 108.463 265.891C108.189 265.929 107.911 265.9 107.651 265.808C60.1284 248.377 26.2149 202.47 26.7034 148.85C27.3068 81.8674 82.0248 27.2184 149.03 26.7012C217.46 26.1725 273.299 81.6892 273.299 149.999C273.299 203.119 239.535 248.498 192.369 265.803Z"
        fill="#E54B4D" />
</svg>
