<svg width="72" height="82" viewBox="0 0 72 82" fill="none" xmlns="http://www.w3.org/2000/svg">
<g clip-path="url(#clip0_1210_2793)">
<path d="M48.3192 82H23.6794C22.6726 81.3978 22.3455 80.7871 22.5743 79.9479C22.7859 79.1791 23.4272 78.8011 24.5366 78.799C25.5925 78.799 26.6485 78.799 27.7387 78.799C28.288 75.8094 28.8224 72.9138 29.376 69.8986C28.94 69.8986 28.6279 69.8986 28.3158 69.8986C21.9993 69.8986 15.6827 69.9029 9.36618 69.8922C8.6223 69.8922 7.86346 69.873 7.14096 69.7235C2.83161 68.8416 0.0100065 65.3267 0.00573135 60.8444C-0.00495654 49.7467 -0.000681385 38.6489 0.00359377 27.5511C0.00359377 22.0247 3.76359 18.2664 9.28709 18.2578C10.0246 18.2578 10.7599 18.2578 11.5508 18.2578C11.5508 17.8371 11.5508 17.5211 11.5508 17.2051C11.5508 13.1499 11.5401 9.09474 11.5551 5.03958C11.5636 2.60307 12.891 0.834948 15.1633 0.158021C15.2851 0.121719 15.3984 0.0533854 15.516 0C29.1708 0 42.8235 0 56.4784 0C59.6805 1.3026 60.4457 2.46 60.4457 6.00052C60.4457 9.78875 60.4457 13.577 60.4457 17.3652C60.4457 17.6449 60.4457 17.9268 60.4457 18.2578C61.3328 18.2578 62.1002 18.2557 62.8697 18.2578C68.1923 18.2813 71.9865 22.0674 71.9908 27.391C71.9993 38.5144 71.9972 49.6399 71.9844 60.7633C71.9844 61.5299 71.9202 62.3157 71.7449 63.061C70.7702 67.2251 67.3223 69.8794 62.8719 69.8901C56.4762 69.9071 50.0785 69.8943 43.6828 69.8943C43.3708 69.8943 43.0587 69.8943 42.6205 69.8943C43.1805 72.9309 43.7192 75.8479 44.2621 78.7947C45.5169 78.7947 46.6883 78.7712 47.8575 78.8011C48.9007 78.8268 49.5462 79.5848 49.4607 80.5778C49.3987 81.3188 48.8836 81.6733 48.3171 81.9936L48.3192 82ZM14.7999 11.5099V58.3011H57.1859V11.5099H14.7999ZM68.7267 61.6559H3.21423C3.3147 62.0872 3.37028 62.4268 3.47288 62.7556C4.23813 65.2199 6.33937 66.6912 9.13746 66.6933C27.0504 66.6976 44.9632 66.6955 62.8761 66.6933C63.1155 66.6933 63.355 66.6848 63.5944 66.6656C66.3219 66.4648 68.3975 64.464 68.7267 61.6559ZM11.4888 58.3246V29.8489H3.2463V58.3246H11.4888ZM68.7416 58.3182V29.8424H60.4906V58.3182H68.7416ZM14.7743 8.17865H57.1859C57.2158 8.04839 57.2372 7.995 57.2372 7.94375C57.2415 7.08958 57.2479 6.23755 57.2458 5.38339C57.2436 3.71562 56.7221 3.20312 55.0312 3.20312C42.3469 3.20312 29.6625 3.20312 16.9781 3.20312C16.7643 3.20312 16.5506 3.19458 16.339 3.20953C15.4861 3.27146 14.8427 3.80104 14.7913 4.65307C14.7229 5.81474 14.7743 6.98495 14.7743 8.17865ZM40.998 78.7627C40.4722 75.9055 39.9677 73.1295 39.4312 70.3598C39.397 70.1805 39.1063 69.9221 38.9331 69.9199C36.8576 69.8901 34.782 69.9007 32.6401 69.9007C32.0908 72.8711 31.55 75.7923 30.9985 78.7648H41.0002L40.998 78.7627ZM11.4909 26.5603V21.5165C6.56809 21.0552 3.29546 23.0817 3.31684 26.5603H11.4909ZM60.4821 26.5539H68.7074C68.5835 24.2348 66.8563 22.1037 64.552 21.6638C63.2395 21.414 61.8693 21.4716 60.4842 21.3883V26.5539H60.4821Z" fill="#FD6F00"/>
<path d="M16.7693 38.5016C16.7693 34.314 16.7672 30.1265 16.7693 25.9389C16.7715 23.2632 18.2549 21.7748 20.9141 21.7706C23.2056 21.7663 25.4971 21.762 27.7885 21.7706C30.1484 21.7812 31.7345 23.2867 31.7409 25.6528C31.7666 34.2414 31.7666 42.83 31.7409 51.4187C31.7345 53.7869 30.1655 55.2881 27.7949 55.303C25.4244 55.318 23.0517 55.3222 20.6811 55.303C18.3169 55.2838 16.78 53.7484 16.7736 51.3845C16.7586 47.0902 16.7693 42.7959 16.7693 38.5016ZM28.5559 38.6019C28.5559 34.4165 28.5495 30.229 28.5623 26.0435C28.5645 25.3517 28.4319 24.9438 27.5962 24.9587C25.3602 24.9993 23.1201 24.9908 20.8842 24.963C20.1788 24.9545 19.9586 25.2385 19.9607 25.9154C19.9736 34.3418 19.9757 42.7681 19.9607 51.1923C19.9607 51.9034 20.245 52.1212 20.9141 52.1148C23.0709 52.0914 25.2299 52.1084 27.3867 52.1063C28.4875 52.1063 28.5538 52.038 28.5559 50.9233C28.5581 46.8169 28.5559 42.7105 28.5559 38.6041V38.6019Z" fill="black"/>
<path d="M44.7889 21.7706C46.9201 21.7706 49.0534 21.762 51.1846 21.7727C53.4932 21.7855 55.0621 23.3017 55.0921 25.6143C55.1284 28.3071 55.1263 31.002 55.0921 33.6969C55.0643 35.9775 53.5616 37.5257 51.2722 37.5492C46.9287 37.5962 42.5851 37.5983 38.2415 37.5492C35.8923 37.5236 34.4067 35.9113 34.4003 33.5453C34.3939 30.9571 34.3939 28.3712 34.4003 25.783C34.4067 23.3401 35.9565 21.7813 38.3912 21.7706C40.5223 21.762 42.6556 21.7706 44.7868 21.7706H44.7889ZM37.6003 29.3406C38.3035 28.7662 38.8593 28.2815 39.4471 27.8373C40.8857 26.7461 42.6856 26.7632 44.1006 27.8757C44.603 28.2708 45.1203 28.6594 45.5627 29.1164C46.142 29.7143 46.6144 29.6396 47.183 29.0993C48.4314 27.9078 49.8742 27.6878 51.4603 28.3562C51.5758 28.4053 51.6997 28.4309 51.9007 28.4929C51.9007 27.5042 51.9049 26.5731 51.9007 25.6442C51.8964 25.1296 51.595 24.9673 51.1183 24.9694C46.8838 24.9758 42.6492 24.9758 38.4147 24.9694C37.8375 24.9694 37.5939 25.2193 37.6024 25.7894C37.6174 26.9084 37.6067 28.0274 37.6067 29.3406H37.6003ZM44.7184 34.3631C46.794 34.3631 48.8717 34.3824 50.9473 34.3439C51.2551 34.3375 51.8023 34.0855 51.8173 33.9104C51.8686 33.304 52.2341 32.5907 51.5052 32.0953C50.4378 31.3707 49.5714 31.2782 48.9059 31.8177C47.2728 33.1481 45.4345 33.1481 43.8121 31.8156C43.3589 31.444 42.8951 31.0831 42.4782 30.6731C41.9866 30.1905 41.5719 30.1692 41.0418 30.6454C40.1119 31.4803 39.1137 32.2405 38.1774 33.0712C37.9337 33.2869 37.8119 33.6435 37.6345 33.9339C37.9722 34.077 38.3078 34.3396 38.6498 34.346C40.672 34.3845 42.6963 34.3653 44.7184 34.3653V34.3631Z" fill="black"/>
<path d="M44.7463 55.3073C42.6408 55.3073 40.5353 55.3158 38.4319 55.3052C35.9331 55.2923 34.4069 53.7527 34.4004 51.2543C34.3962 48.6683 34.3919 46.0802 34.4004 43.4942C34.409 41.1409 35.9459 39.5522 38.2823 39.5415C42.5981 39.518 46.916 39.518 51.2317 39.5415C53.5104 39.5543 55.0559 41.0747 55.0879 43.349C55.1264 46.0695 55.1264 48.79 55.0879 51.5105C55.0537 53.7826 53.5018 55.2838 51.2189 55.3052C49.0599 55.3265 46.9031 55.3094 44.7442 55.3116L44.7463 55.3073ZM49.7568 52.1063C50.1886 52.1063 50.5071 52.1063 50.8256 52.1063C51.8217 52.0978 51.9008 52.023 51.9008 50.9938C51.9051 48.5658 51.8858 46.1357 51.9115 43.7077C51.92 42.9881 51.6592 42.719 50.9282 42.7233C46.8219 42.7468 42.7156 42.7468 38.6115 42.7233C37.8505 42.719 37.5726 42.9838 37.5854 43.7504C37.6196 45.9648 37.5983 48.1793 37.5983 50.3958C37.5983 52.2067 37.6218 52.228 39.4344 52.0956C39.5093 52.0892 39.5819 52.0529 39.7358 52.0059C39.7978 50.319 39.5093 48.5359 40.8581 47.1158C42.224 45.6766 43.9618 45.7748 45.6997 45.8196C46.7214 45.8453 47.6149 46.2061 48.393 46.8809C49.9962 48.2754 49.7589 50.1759 49.7568 52.1063ZM46.5526 52.0764C46.5526 51.3183 46.5739 50.6307 46.5462 49.9453C46.5205 49.3388 46.1357 48.963 45.5607 49.0377C44.6907 49.153 43.483 48.4547 43.0491 49.7189C42.8097 50.4172 43.0063 51.2671 43.0063 52.0764H46.5547H46.5526Z" fill="black"/>
<path d="M39.1198 18.828C34.4556 18.828 29.7914 18.8322 25.1272 18.8258C23.9024 18.8258 23.2162 18.2664 23.1799 17.2926C23.15 16.4577 23.6865 15.7914 24.5137 15.6718C24.828 15.627 25.1507 15.6291 25.4714 15.6291C34.5882 15.6291 43.7028 15.6291 52.8195 15.6291C53.138 15.6291 53.463 15.6291 53.775 15.6761C54.5382 15.7935 55.0576 16.3957 55.0854 17.1581C55.1153 17.9653 54.6194 18.6208 53.8285 18.766C53.4907 18.828 53.1402 18.8258 52.7939 18.8258C48.2366 18.8301 43.6771 18.828 39.1198 18.8258V18.828Z" fill="#FD6F00"/>
<path d="M16.7783 17.2243C16.7783 16.3359 17.4538 15.6526 18.3388 15.6441C19.2152 15.6355 19.9334 16.321 19.959 17.1837C19.9847 18.0678 19.2344 18.8216 18.3388 18.8109C17.4645 18.8002 16.7783 18.1041 16.7783 17.2221V17.2243Z" fill="#FD6F00"/>
<path d="M53.0565 4.15125C53.4284 4.15125 53.8046 4.12349 54.1744 4.15765C54.9675 4.22812 55.5553 4.84099 55.6173 5.61828C55.675 6.35286 55.2154 7.12802 54.463 7.21984C53.4968 7.33515 52.4964 7.34156 51.5302 7.22625C50.7329 7.13015 50.3054 6.37208 50.3781 5.55849C50.4465 4.7812 51.0322 4.21104 51.8573 4.15338C52.2549 4.12562 52.6567 4.14911 53.0565 4.14911V4.15338V4.15125Z" fill="#FD6F00"/>
<path d="M24.2097 35.0699C23.5984 35.0699 22.987 35.0956 22.3778 35.0635C21.4779 35.0144 20.8131 34.314 20.8174 33.4662C20.8217 32.6185 21.4865 31.9095 22.3907 31.8839C23.6369 31.8497 24.8874 31.8476 26.1336 31.8839C27.0506 31.9117 27.6854 32.6057 27.6812 33.4769C27.6769 34.346 27.0378 35.0166 26.1207 35.0614C25.4859 35.0934 24.8467 35.0678 24.2097 35.0678V35.0699Z" fill="black"/>
<path d="M24.3148 42.6037C24.8727 42.6037 25.4306 42.5909 25.9885 42.6058C27.0146 42.6357 27.6922 43.2913 27.6815 44.2223C27.6708 45.1192 27.006 45.7769 26.027 45.7961C24.8321 45.8196 23.6372 45.8218 22.4423 45.7961C21.4932 45.7727 20.8028 45.0594 20.8156 44.1839C20.8284 43.3063 21.521 42.6507 22.4829 42.6058C22.5364 42.6037 22.5898 42.6058 22.6432 42.6058C23.2011 42.6058 23.759 42.6058 24.317 42.6058L24.3148 42.6037Z" fill="black"/>
<path d="M24.306 26.5261C24.9195 26.5261 25.533 26.4984 26.1444 26.5325C27.0464 26.5838 27.6578 27.2159 27.6813 28.0594C27.7048 28.9071 27.1362 29.6204 26.2384 29.6673C24.9366 29.7335 23.6263 29.7335 22.3245 29.6759C21.3925 29.6353 20.7748 28.89 20.8175 28.038C20.8581 27.2031 21.4844 26.5987 22.3865 26.5261C22.4399 26.5219 22.4934 26.5197 22.5468 26.5197C23.1325 26.5197 23.7203 26.5197 24.306 26.5197C24.306 26.5219 24.306 26.524 24.306 26.5261Z" fill="black"/>
<path d="M24.2102 40.4277C23.5967 40.4277 22.9811 40.4661 22.3718 40.4192C21.427 40.3444 20.8007 39.6718 20.8157 38.8155C20.8285 37.9549 21.4783 37.2886 22.4189 37.263C23.6437 37.2289 24.8728 37.2289 26.0976 37.263C27.0425 37.2886 27.6752 37.9506 27.6837 38.824C27.6923 39.6718 27.113 40.2974 26.2088 40.4192C26.1297 40.4298 26.0506 40.4427 25.9694 40.4427C25.3837 40.4427 24.7959 40.4427 24.2102 40.4427C24.2102 40.4384 24.2102 40.432 24.2102 40.4277Z" fill="black"/>
<path d="M24.2848 47.985C24.8983 47.985 25.5117 47.9593 26.1231 47.9914C27.0294 48.0405 27.6472 48.6576 27.6793 49.499C27.7156 50.3766 27.1235 51.092 26.1787 51.1368C24.9025 51.1966 23.62 51.1966 22.3439 51.139C21.4055 51.0963 20.7856 50.3723 20.8155 49.5182C20.8454 48.6576 21.4931 48.0298 22.4443 47.9892C23.0557 47.9615 23.6713 47.985 24.2826 47.9871L24.2848 47.985Z" fill="black"/>
</g>
<defs>
<clipPath id="clip0_1210_2793">
<rect width="72" height="82" fill="white"/>
</clipPath>
</defs>
</svg>
